<svg width="154" height="158" viewBox="0 0 154 158" fill="none" xmlns="http://www.w3.org/2000/svg">
<path d="M146 0C150.418 2.10903e-06 154 3.58172 154 8V24C154 28.4183 150.418 32 146 32H77C71 32 66 37 66 43V150C66 154.418 62.4183 158 58 158H42C37.5817 158 34 154.418 34 150V43C34 37 29 32 23 32H8C3.58172 32 1.93129e-07 28.4183 0 24V8C3.02815e-06 3.58172 3.58172 1.93129e-07 8 0H146ZM98 85C102.418 85 106 88.5817 106 93V109C106 113.418 102.418 117 98 117H86C81.5817 117 78 113.418 78 109V93C78 88.5817 81.5817 85 86 85H98ZM122 44C126.418 44 130 47.5817 130 52V68C130 72.4183 126.418 76 122 76H86C81.5817 76 78 72.4183 78 68V52C78 47.5817 81.5817 44 86 44H122Z" fill="white"/>
</svg>
